<svg width="162" height="72" viewBox="0 0 162 72" fill="none" xmlns="http://www.w3.org/2000/svg">
<path d="M34.4483 51.8166C33.8755 51.8166 33.4198 51.6482 33.0813 51.3114C32.7689 50.9746 32.6126 50.5212 32.6126 49.9512V26.0897C32.6126 25.4938 32.7689 25.0404 33.0813 24.7295C33.3938 24.4186 33.8364 24.2631 34.4093 24.2631C35.0082 24.2631 35.4638 24.4186 35.7763 24.7295C36.0887 25.0404 36.245 25.4938 36.245 26.0897V48.7076H48.6651C49.2119 48.7076 49.6155 48.8371 49.8759 49.0962C50.1623 49.3553 50.3055 49.731 50.3055 50.2232C50.3055 50.7414 50.1623 51.143 49.8759 51.428C49.6155 51.687 49.2119 51.8166 48.6651 51.8166H34.4483Z" fill="black" fill-opacity="0.8"/>
<path d="M63.9173 52.1664C62.0946 52.1664 60.4802 51.9332 59.0742 51.4668C57.6942 50.9746 56.5355 50.2621 55.5981 49.3294C54.6607 48.3708 53.9447 47.192 53.45 45.7929C52.9813 44.368 52.7469 42.7228 52.7469 40.8574V25.9731C52.7469 25.3513 52.9031 24.8979 53.2156 24.6129C53.5281 24.302 53.9707 24.1465 54.5435 24.1465C55.1424 24.1465 55.5981 24.302 55.9106 24.6129C56.223 24.8979 56.3792 25.3513 56.3792 25.9731V40.7408C56.3792 43.513 57.0172 45.5856 58.293 46.9588C59.5689 48.306 61.4436 48.9796 63.9173 48.9796C66.3909 48.9796 68.2656 48.306 69.5415 46.9588C70.8174 45.5856 71.4553 43.513 71.4553 40.7408V25.9731C71.4553 25.3513 71.6115 24.8979 71.924 24.6129C72.2364 24.302 72.6791 24.1465 73.2519 24.1465C73.8248 24.1465 74.2674 24.302 74.5799 24.6129C74.8923 24.8979 75.0486 25.3513 75.0486 25.9731V40.8574C75.0486 43.3187 74.6189 45.3913 73.7597 47.0754C72.9265 48.7594 71.6766 50.0289 70.0102 50.8839C68.3698 51.7389 66.3388 52.1664 63.9173 52.1664Z" fill="black" fill-opacity="0.8"/>
<path d="M83.1898 52.0886C82.6691 52.0886 82.2525 51.9332 81.94 51.6223C81.6536 51.3114 81.5104 50.8839 81.5104 50.3398V25.9731C81.5104 25.3772 81.6536 24.9238 81.94 24.6129C82.2264 24.302 82.604 24.1465 83.0727 24.1465C83.5153 24.1465 83.8538 24.2243 84.0882 24.3797C84.3225 24.5352 84.5829 24.8072 84.8693 25.1958L101.43 47.0365H100.453V25.8954C100.453 25.3254 100.596 24.8979 100.883 24.6129C101.195 24.302 101.625 24.1465 102.172 24.1465C102.718 24.1465 103.135 24.302 103.421 24.6129C103.708 24.8979 103.851 25.3254 103.851 25.8954V50.3398C103.851 50.8839 103.708 51.3114 103.421 51.6223C103.161 51.9332 102.81 52.0886 102.367 52.0886C101.95 52.0886 101.599 51.9979 101.312 51.8166C101.052 51.6611 100.779 51.3891 100.492 51.0005L83.971 29.1598H84.8693V50.3398C84.8693 50.8839 84.7261 51.3114 84.4397 51.6223C84.1533 51.9332 83.7366 52.0886 83.1898 52.0886Z" fill="black" fill-opacity="0.8"/>
<path d="M110.069 52.0886C109.601 52.0886 109.223 51.985 108.937 51.7777C108.676 51.5705 108.52 51.2855 108.468 50.9228C108.416 50.56 108.494 50.1585 108.702 49.718L119.365 25.701C119.599 25.157 119.899 24.7683 120.263 24.5352C120.628 24.2761 121.031 24.1465 121.474 24.1465C121.917 24.1465 122.307 24.2761 122.646 24.5352C123.01 24.7683 123.323 25.157 123.583 25.701L134.246 49.718C134.454 50.1585 134.532 50.573 134.48 50.9616C134.454 51.3243 134.311 51.6093 134.051 51.8166C133.79 51.9979 133.426 52.0886 132.957 52.0886C132.436 52.0886 132.02 51.9591 131.707 51.7C131.395 51.415 131.121 51.0134 130.887 50.4953L128.114 44.0441L129.793 44.9768H113.077L114.756 44.0441L111.983 50.4953C111.749 51.0652 111.488 51.4798 111.202 51.7389C110.916 51.972 110.538 52.0886 110.069 52.0886ZM121.396 28.4991L115.303 42.8394L114.366 42.0233H128.504L127.606 42.8394L121.474 28.4991H121.396Z" fill="black" fill-opacity="0.8"/>
<path d="M140.901 52.0886C140.328 52.0886 139.886 51.9332 139.573 51.6223C139.261 51.2855 139.104 50.8191 139.104 50.2232V26.2451C139.104 25.6492 139.261 25.1958 139.573 24.8849C139.912 24.574 140.367 24.4186 140.94 24.4186H150.236C153.204 24.4186 155.482 25.1181 157.071 26.5172C158.685 27.8903 159.492 29.8464 159.492 32.3854C159.492 34.0435 159.128 35.4685 158.399 36.6602C157.67 37.8261 156.615 38.72 155.235 39.3417C153.855 39.9635 152.189 40.2744 150.236 40.2744L150.626 39.7304H151.486C152.527 39.7304 153.425 39.9895 154.18 40.5076C154.962 41.0258 155.652 41.8549 156.251 42.9948L159.844 49.5626C160.078 49.9771 160.182 50.3787 160.156 50.7673C160.13 51.1559 159.987 51.4798 159.727 51.7389C159.466 51.972 159.089 52.0886 158.594 52.0886C158.073 52.0886 157.657 51.985 157.344 51.7777C157.032 51.5445 156.758 51.2077 156.524 50.7673L152.306 43.0725C151.733 41.9844 151.082 41.2719 150.353 40.9351C149.624 40.5724 148.647 40.391 147.424 40.391H142.737V50.2232C142.737 50.8191 142.581 51.2855 142.268 51.6223C141.982 51.9332 141.526 52.0886 140.901 52.0886ZM142.737 37.5929H149.65C151.733 37.5929 153.295 37.1655 154.337 36.3105C155.378 35.4296 155.899 34.1471 155.899 32.4631C155.899 30.7791 155.378 29.5096 154.337 28.6546C153.295 27.7996 151.733 27.3721 149.65 27.3721H142.737V37.5929Z" fill="black" fill-opacity="0.8"/>
<path d="M115.886 66.4871C115.734 66.4871 115.614 66.444 115.528 66.3576C115.452 66.2712 115.414 66.1471 115.414 65.9852V55.3952C115.414 55.2224 115.452 55.0929 115.528 55.0065C115.604 54.9202 115.707 54.877 115.837 54.877C115.978 54.877 116.081 54.8986 116.146 54.9418C116.211 54.9849 116.282 55.0659 116.358 55.1846L123.844 65.2079H123.469V55.3628C123.469 55.2008 123.507 55.0821 123.583 55.0065C123.67 54.9202 123.789 54.877 123.941 54.877C124.082 54.877 124.191 54.9202 124.267 55.0065C124.354 55.0821 124.397 55.2008 124.397 55.3628V65.9852C124.397 66.1471 124.359 66.2712 124.283 66.3576C124.218 66.444 124.12 66.4871 123.99 66.4871C123.871 66.4871 123.773 66.4601 123.697 66.4062C123.621 66.363 123.54 66.2874 123.453 66.1795L115.983 56.1562H116.341V65.9852C116.341 66.1471 116.298 66.2712 116.211 66.3576C116.135 66.444 116.027 66.4871 115.886 66.4871Z" fill="#838383"/>
<path d="M127.95 66.39C127.776 66.39 127.641 66.3414 127.543 66.2442C127.445 66.1471 127.397 66.0068 127.397 65.8232V55.5409C127.397 55.3574 127.445 55.217 127.543 55.1199C127.641 55.0227 127.776 54.9741 127.95 54.9741H134.101C134.253 54.9741 134.367 55.0119 134.443 55.0875C134.519 55.1631 134.557 55.2656 134.557 55.3952C134.557 55.5463 134.519 55.6596 134.443 55.7352C134.367 55.8 134.253 55.8324 134.101 55.8324H128.373V60.172H133.776C133.928 60.172 134.042 60.2098 134.118 60.2853C134.194 60.3501 134.232 60.4527 134.232 60.593C134.232 60.7333 134.194 60.8413 134.118 60.9169C134.042 60.9924 133.928 61.0302 133.776 61.0302H128.373V65.5318H134.101C134.253 65.5318 134.367 65.5696 134.443 65.6451C134.519 65.7099 134.557 65.8124 134.557 65.9528C134.557 66.0931 134.519 66.2011 134.443 66.2766C134.367 66.3522 134.253 66.39 134.101 66.39H127.95Z" fill="#838383"/>
<path d="M140.161 66.4871C140.009 66.4871 139.885 66.4494 139.787 66.3738C139.7 66.2874 139.624 66.1633 139.559 66.0014L135.881 55.4761C135.827 55.3034 135.838 55.1631 135.914 55.0551C136.001 54.9364 136.136 54.877 136.321 54.877C136.462 54.877 136.576 54.9094 136.662 54.9741C136.749 55.0389 136.82 55.1523 136.874 55.3142L140.438 65.6775H139.917L143.514 55.3628C143.579 55.2008 143.649 55.0821 143.725 55.0065C143.812 54.9202 143.931 54.877 144.083 54.877C144.224 54.877 144.333 54.9202 144.409 55.0065C144.495 55.0821 144.566 55.2008 144.62 55.3628L148.2 65.6775H147.712L151.309 55.3142C151.352 55.1631 151.417 55.0551 151.504 54.9903C151.602 54.9148 151.721 54.877 151.862 54.877C152.036 54.877 152.16 54.931 152.236 55.0389C152.323 55.1469 152.329 55.2926 152.253 55.4761L148.575 66.0014C148.51 66.1633 148.434 66.2874 148.347 66.3738C148.26 66.4494 148.135 66.4871 147.973 66.4871C147.821 66.4871 147.696 66.4494 147.598 66.3738C147.512 66.2874 147.436 66.1633 147.37 66.0014L143.904 56.0105H144.23L140.747 66.0014C140.682 66.1633 140.606 66.2874 140.519 66.3738C140.443 66.4494 140.324 66.4871 140.161 66.4871Z" fill="#838383"/>
<path d="M157.883 66.5195C157.362 66.5195 156.857 66.4763 156.369 66.39C155.881 66.3036 155.425 66.1741 155.002 66.0014C154.59 65.8178 154.216 65.5965 153.879 65.3375C153.771 65.2619 153.695 65.1755 153.652 65.0784C153.619 64.9704 153.614 64.8733 153.635 64.7869C153.668 64.6897 153.717 64.6088 153.782 64.544C153.858 64.4792 153.944 64.4469 154.042 64.4469C154.14 64.4361 154.243 64.4684 154.351 64.544C154.85 64.911 155.377 65.1809 155.93 65.3536C156.494 65.5264 157.145 65.6127 157.883 65.6127C158.913 65.6127 159.684 65.413 160.194 65.0136C160.714 64.6142 160.975 64.0906 160.975 63.4429C160.975 62.9032 160.785 62.4821 160.405 62.1799C160.036 61.8776 159.423 61.6401 158.566 61.4674L156.923 61.1274C155.892 60.9223 155.127 60.5768 154.628 60.091C154.129 59.6052 153.879 58.9575 153.879 58.1479C153.879 57.6513 153.977 57.2033 154.172 56.8039C154.368 56.3937 154.644 56.0429 155.002 55.7514C155.36 55.4599 155.783 55.2386 156.272 55.0875C156.771 54.9256 157.319 54.8446 157.915 54.8446C158.62 54.8446 159.266 54.9418 159.852 55.1361C160.449 55.3304 160.991 55.638 161.479 56.0591C161.577 56.1346 161.642 56.2264 161.675 56.3343C161.707 56.4315 161.707 56.5286 161.675 56.6258C161.642 56.7122 161.593 56.7823 161.528 56.8363C161.463 56.8903 161.382 56.9227 161.284 56.9335C161.186 56.9335 161.083 56.8903 160.975 56.8039C160.519 56.4369 160.042 56.1724 159.543 56.0105C159.054 55.8378 158.512 55.7514 157.915 55.7514C157.308 55.7514 156.776 55.8485 156.32 56.0429C155.876 56.2372 155.528 56.5124 155.279 56.8687C155.029 57.2249 154.905 57.6459 154.905 58.1317C154.905 58.6931 155.078 59.1411 155.425 59.4757C155.773 59.8104 156.331 60.0532 157.102 60.2044L158.762 60.5444C159.857 60.7711 160.671 61.1112 161.203 61.5646C161.734 62.0072 162 62.6171 162 63.3943C162 63.8585 161.902 64.2849 161.707 64.6736C161.523 65.0514 161.251 65.3806 160.893 65.6613C160.535 65.942 160.101 66.1579 159.591 66.309C159.092 66.4494 158.523 66.5195 157.883 66.5195Z" fill="#838383"/>
<path d="M59.6793 8.62585C54.4842 5.2653 48.2843 3.31305 41.6261 3.31305C23.3094 3.31305 8.46077 18.0877 8.46077 36.3131C8.46077 54.5384 23.3094 69.3131 41.6261 69.3131C46.9159 69.3131 51.9164 68.0808 56.3535 65.8891C50.59 69.748 43.6495 72 36.1804 72C16.1985 72 0 55.8823 0 36C0 16.1177 16.1985 0 36.1804 0C45.15 0 53.3573 3.24774 59.6793 8.62585Z" fill="#FFDC24"/>
</svg>
