<svg width="129" height="58" viewBox="0 0 129 58" fill="none" xmlns="http://www.w3.org/2000/svg">
<rect x="4" y="34" width="64" height="19" fill="#FFEA7E"/>
<path d="M20.7031 33.1133V37H6.42578V33.1133H20.7031ZM7.79297 8.5625V37H2.89062V8.5625H7.79297ZM39.6289 8.5625H44.5117V27.5664C44.5117 29.7279 44.043 31.5378 43.1055 32.9961C42.168 34.4544 40.8919 35.5547 39.2773 36.2969C37.6758 37.026 35.8854 37.3906 33.9062 37.3906C31.862 37.3906 30.0391 37.026 28.4375 36.2969C26.8359 35.5547 25.5729 34.4544 24.6484 32.9961C23.737 31.5378 23.2812 29.7279 23.2812 27.5664V8.5625H28.1641V27.5664C28.1641 28.9336 28.3984 30.0599 28.8672 30.9453C29.3359 31.8177 30 32.4622 30.8594 32.8789C31.7188 33.2956 32.7344 33.5039 33.9062 33.5039C35.0781 33.5039 36.0872 33.2956 36.9336 32.8789C37.793 32.4622 38.457 31.8177 38.9258 30.9453C39.3945 30.0599 39.6289 28.9336 39.6289 27.5664V8.5625ZM72.4023 8.5625V37H67.5L54.7461 16.6289V37H49.8438V8.5625H54.7461L67.5391 28.9727V8.5625H72.4023ZM89.668 12.3516L81.1719 37H76.0352L86.7383 8.5625H90.0195L89.668 12.3516ZM96.7773 37L88.2617 12.3516L87.8906 8.5625H91.1914L101.934 37H96.7773ZM96.3672 26.4531V30.3398H80.8984V26.4531H96.3672ZM105.117 8.5625H115.176C117.337 8.5625 119.18 8.88802 120.703 9.53906C122.227 10.1901 123.392 11.1536 124.199 12.4297C125.02 13.6927 125.43 15.2552 125.43 17.1172C125.43 18.5365 125.169 19.7865 124.648 20.8672C124.128 21.9479 123.392 22.8594 122.441 23.6016C121.491 24.3307 120.358 24.8971 119.043 25.3008L117.559 26.0234H108.516L108.477 22.1367H115.254C116.426 22.1367 117.402 21.9284 118.184 21.5117C118.965 21.0951 119.551 20.5286 119.941 19.8125C120.345 19.0833 120.547 18.263 120.547 17.3516C120.547 16.362 120.352 15.5026 119.961 14.7734C119.583 14.0312 118.997 13.4648 118.203 13.0742C117.409 12.6706 116.4 12.4688 115.176 12.4688H110.02V37H105.117V8.5625ZM121.348 37L114.668 24.2266L119.805 24.207L126.582 36.7461V37H121.348Z" fill="black"/>
<path d="M85.3926 38.7812V53H84.1816L76.0078 40.8516V53H74.8066V38.7812H76.0078L84.2012 50.9297V38.7812H85.3926ZM97.8633 51.9746V53H89.8652V51.9746H97.8633ZM90.2266 38.7812V53H89.0254V38.7812H90.2266ZM96.8672 45.1582V46.1836H89.8652V45.1582H96.8672ZM97.8145 38.7812V39.8164H89.8652V38.7812H97.8145ZM104.016 49.2402L107.102 38.7812H108.068L107.287 41.8867L103.996 53H103.068L104.016 49.2402ZM100.432 38.7812L103.029 49.1426L103.811 53H102.844L99.2012 38.7812H100.432ZM112.229 49.1426L114.787 38.7812H116.018L112.385 53H111.418L112.229 49.1426ZM108.176 38.7812L111.223 49.2402L112.16 53H111.232L108.01 41.8867L107.219 38.7812H108.176ZM126.389 49.5039C126.389 49.1133 126.324 48.765 126.193 48.459C126.063 48.153 125.848 47.8796 125.549 47.6387C125.256 47.3913 124.859 47.1634 124.357 46.9551C123.863 46.7402 123.244 46.5286 122.502 46.3203C121.792 46.1185 121.151 45.8971 120.578 45.6562C120.005 45.4154 119.514 45.1387 119.104 44.8262C118.7 44.5137 118.391 44.1491 118.176 43.7324C117.961 43.3092 117.854 42.8177 117.854 42.2578C117.854 41.7109 117.971 41.2129 118.205 40.7637C118.439 40.3145 118.768 39.9271 119.191 39.6016C119.621 39.276 120.126 39.0254 120.705 38.8496C121.291 38.6738 121.932 38.5859 122.629 38.5859C123.625 38.5859 124.484 38.7747 125.207 39.1523C125.936 39.5299 126.499 40.041 126.896 40.6855C127.3 41.3236 127.502 42.0397 127.502 42.834H126.301C126.301 42.2155 126.154 41.6654 125.861 41.1836C125.575 40.6953 125.158 40.3145 124.611 40.041C124.071 39.7611 123.41 39.6211 122.629 39.6211C121.848 39.6211 121.19 39.7415 120.656 39.9824C120.129 40.2168 119.729 40.5326 119.455 40.9297C119.188 41.3203 119.055 41.7565 119.055 42.2383C119.055 42.5768 119.12 42.8893 119.25 43.1758C119.38 43.4557 119.592 43.7194 119.885 43.9668C120.184 44.2077 120.578 44.4355 121.066 44.6504C121.555 44.8587 122.157 45.0573 122.873 45.2461C123.628 45.4544 124.299 45.6855 124.885 45.9395C125.471 46.1934 125.965 46.4863 126.369 46.8184C126.773 47.1439 127.079 47.5247 127.287 47.9609C127.495 48.3971 127.6 48.9049 127.6 49.4844C127.6 50.0638 127.476 50.5846 127.229 51.0469C126.988 51.5026 126.646 51.89 126.203 52.209C125.767 52.528 125.249 52.7721 124.65 52.9414C124.058 53.1107 123.41 53.1953 122.707 53.1953C122.076 53.1953 121.447 53.1139 120.822 52.9512C120.197 52.7884 119.624 52.5378 119.104 52.1992C118.589 51.8542 118.176 51.4115 117.863 50.8711C117.557 50.3307 117.404 49.6862 117.404 48.9375H118.596C118.596 49.5365 118.716 50.041 118.957 50.4512C119.198 50.8613 119.517 51.1934 119.914 51.4473C120.318 51.7012 120.76 51.8867 121.242 52.0039C121.73 52.1146 122.219 52.1699 122.707 52.1699C123.456 52.1699 124.104 52.0592 124.65 51.8379C125.204 51.6165 125.63 51.3073 125.93 50.9102C126.236 50.5065 126.389 50.0378 126.389 49.5039Z" fill="#838383"/>
</svg>
