<svg width="121" height="54" viewBox="0 0 121 54" fill="none" xmlns="http://www.w3.org/2000/svg">
<path d="M25.6614 38.8624C25.2346 38.8624 24.8952 38.7361 24.643 38.4835C24.4103 38.2309 24.2939 37.8909 24.2939 37.4634V19.5672C24.2939 19.1203 24.4103 18.7803 24.643 18.5471C24.8758 18.3139 25.2055 18.1973 25.6323 18.1973C26.0784 18.1973 26.4178 18.3139 26.6506 18.5471C26.8833 18.7803 26.9997 19.1203 26.9997 19.5672V36.5307H36.2518C36.6591 36.5307 36.9597 36.6279 37.1537 36.8222C37.3671 37.0165 37.4738 37.2982 37.4738 37.6674C37.4738 38.056 37.3671 38.3572 37.1537 38.571C36.9597 38.7653 36.6591 38.8624 36.2518 38.8624H25.6614Z" fill="black" fill-opacity="0.8"/>
<path d="M47.6134 39.1248C46.2557 39.1248 45.0531 38.9499 44.0057 38.6001C42.9777 38.2309 42.1146 37.6966 41.4163 36.997C40.718 36.2781 40.1846 35.394 39.8161 34.3447C39.467 33.276 39.2924 32.0421 39.2924 30.643V19.4798C39.2924 19.0135 39.4088 18.6734 39.6415 18.4597C39.8743 18.2265 40.204 18.1099 40.6307 18.1099C41.0769 18.1099 41.4163 18.2265 41.6491 18.4597C41.8818 18.6734 41.9982 19.0135 41.9982 19.4798V30.5556C41.9982 32.6347 42.4734 34.1892 43.4238 35.2191C44.3742 36.2295 45.7708 36.7347 47.6134 36.7347C49.4561 36.7347 50.8526 36.2295 51.8031 35.2191C52.7535 34.1892 53.2287 32.6347 53.2287 30.5556V19.4798C53.2287 19.0135 53.3451 18.6734 53.5778 18.4597C53.8106 18.2265 54.1403 18.1099 54.567 18.1099C54.9938 18.1099 55.3235 18.2265 55.5563 18.4597C55.789 18.6734 55.9054 19.0135 55.9054 19.4798V30.643C55.9054 32.489 55.5854 34.0435 54.9453 35.3065C54.3246 36.5696 53.3936 37.5217 52.1522 38.1629C50.9302 38.8041 49.4173 39.1248 47.6134 39.1248Z" fill="black" fill-opacity="0.8"/>
<path d="M61.97 39.0665C61.5821 39.0665 61.2718 38.9499 61.039 38.7167C60.8256 38.4835 60.719 38.1629 60.719 37.7549V19.4798C60.719 19.0329 60.8256 18.6928 61.039 18.4597C61.2524 18.2265 61.5336 18.1099 61.8827 18.1099C62.2125 18.1099 62.4646 18.1682 62.6392 18.2848C62.8138 18.4014 63.0077 18.6054 63.2211 18.8969L75.5572 35.2774H74.8298V19.4215C74.8298 18.994 74.9365 18.6734 75.1499 18.4597C75.3826 18.2265 75.7027 18.1099 76.11 18.1099C76.5173 18.1099 76.8277 18.2265 77.041 18.4597C77.2544 18.6734 77.3611 18.994 77.3611 19.4215V37.7549C77.3611 38.1629 77.2544 38.4835 77.041 38.7167C76.847 38.9499 76.5852 39.0665 76.2555 39.0665C75.9451 39.0665 75.6833 38.9985 75.4699 38.8624C75.2759 38.7459 75.0723 38.5418 74.8589 38.2504L62.5519 21.8698H63.2211V37.7549C63.2211 38.1629 63.1144 38.4835 62.901 38.7167C62.6877 38.9499 62.3773 39.0665 61.97 39.0665Z" fill="black" fill-opacity="0.8"/>
<path d="M81.9932 39.0665C81.6441 39.0665 81.3628 38.9887 81.1495 38.8333C80.9555 38.6778 80.8391 38.4641 80.8003 38.1921C80.7616 37.92 80.8197 37.6188 80.9749 37.2885L88.9177 19.2758C89.0923 18.8677 89.3154 18.5763 89.5869 18.4014C89.8585 18.2071 90.1591 18.1099 90.4888 18.1099C90.8186 18.1099 91.1095 18.2071 91.3617 18.4014C91.6332 18.5763 91.866 18.8677 92.0599 19.2758L100.003 37.2885C100.158 37.6188 100.216 37.9297 100.177 38.2212C100.158 38.4932 100.051 38.707 99.8573 38.8624C99.6633 38.9985 99.3918 39.0665 99.0426 39.0665C98.6547 39.0665 98.3444 38.9693 98.1116 38.775C97.8789 38.5613 97.6752 38.2601 97.5006 37.8714L95.4349 33.0331L96.686 33.7326H84.2335L85.4846 33.0331L83.4189 37.8714C83.2443 38.2989 83.0503 38.6098 82.837 38.8041C82.6236 38.979 82.3424 39.0665 81.9932 39.0665ZM90.4307 21.3744L85.8919 32.1295L85.1936 31.5174H95.7259L95.0567 32.1295L90.4888 21.3744H90.4307Z" fill="black" fill-opacity="0.8"/>
<path d="M104.96 39.0665C104.534 39.0665 104.204 38.9499 103.971 38.7167C103.738 38.4641 103.622 38.1143 103.622 37.6674V19.6838C103.622 19.2369 103.738 18.8969 103.971 18.6637C104.223 18.4305 104.563 18.3139 104.99 18.3139H111.914C114.125 18.3139 115.822 18.8386 117.006 19.8879C118.208 20.9177 118.809 22.3848 118.809 24.289C118.809 25.5326 118.538 26.6013 117.995 27.4952C117.452 28.3696 116.666 29.04 115.638 29.5063C114.61 29.9727 113.369 30.2058 111.914 30.2058L112.205 29.7978H112.845C113.621 29.7978 114.29 29.9921 114.853 30.3807C115.434 30.7693 115.948 31.3911 116.395 32.2461L119.071 37.1719C119.246 37.4828 119.323 37.784 119.304 38.0755C119.285 38.3669 119.178 38.6098 118.984 38.8041C118.79 38.979 118.509 39.0665 118.14 39.0665C117.752 39.0665 117.442 38.9887 117.209 38.8333C116.977 38.6584 116.773 38.4058 116.598 38.0755L113.456 32.3044C113.029 31.4883 112.544 30.9539 112.001 30.7013C111.458 30.4293 110.731 30.2933 109.819 30.2933H106.328V37.6674C106.328 38.1143 106.212 38.4641 105.979 38.7167C105.765 38.9499 105.426 39.0665 104.96 39.0665ZM106.328 28.1947H111.478C113.029 28.1947 114.193 27.8741 114.969 27.2329C115.745 26.5722 116.133 25.6104 116.133 24.3473C116.133 23.0843 115.745 22.1322 114.969 21.4909C114.193 20.8497 113.029 20.5291 111.478 20.5291H106.328V28.1947Z" fill="black" fill-opacity="0.8"/>
<path d="M86.3866 49.8775C86.233 49.8775 86.1158 49.837 86.035 49.7561C85.9542 49.667 85.9138 49.5415 85.9138 49.3796V41.6557C85.9138 41.4937 85.9542 41.3682 86.035 41.2792C86.1158 41.1901 86.2209 41.1456 86.3502 41.1456C86.4795 41.1456 86.5724 41.1699 86.629 41.2185C86.6937 41.2589 86.7664 41.3359 86.8472 41.4492L92.1327 48.5052H91.8418V41.6314C91.8418 41.4775 91.8822 41.3601 91.963 41.2792C92.0438 41.1901 92.161 41.1456 92.3146 41.1456C92.46 41.1456 92.5691 41.1901 92.6419 41.2792C92.7227 41.3601 92.7631 41.4775 92.7631 41.6314V49.3917C92.7631 49.5455 92.7267 49.667 92.654 49.7561C92.5894 49.837 92.4924 49.8775 92.3631 49.8775C92.2418 49.8775 92.1448 49.8532 92.0721 49.8046C91.9994 49.756 91.9226 49.6791 91.8418 49.5739L86.5684 42.5179H86.8472V49.3796C86.8472 49.5415 86.8068 49.667 86.726 49.7561C86.6452 49.837 86.532 49.8775 86.3866 49.8775Z" fill="#838383"/>
<path d="M95.433 49.7925C95.2552 49.7925 95.1178 49.748 95.0208 49.6589C94.9319 49.5617 94.8874 49.4241 94.8874 49.246V41.7771C94.8874 41.599 94.9319 41.4654 95.0208 41.3763C95.1178 41.2792 95.2552 41.2306 95.433 41.2306H99.9426C100.08 41.2306 100.185 41.267 100.258 41.3399C100.331 41.4128 100.367 41.514 100.367 41.6435C100.367 41.7812 100.331 41.8864 100.258 41.9593C100.185 42.0321 100.08 42.0686 99.9426 42.0686H95.8572V45.0318H99.688C99.8254 45.0318 99.9305 45.0683 100.003 45.1411C100.076 45.2059 100.112 45.3071 100.112 45.4447C100.112 45.5824 100.076 45.6876 100.003 45.7605C99.9305 45.8334 99.8254 45.8698 99.688 45.8698H95.8572V48.9545H99.9426C100.08 48.9545 100.185 48.9909 100.258 49.0638C100.331 49.1367 100.367 49.2379 100.367 49.3674C100.367 49.5051 100.331 49.6103 100.258 49.6832C100.185 49.7561 100.08 49.7925 99.9426 49.7925H95.433Z" fill="#838383"/>
<path d="M104.612 49.8775C104.466 49.8775 104.349 49.8411 104.26 49.7682C104.171 49.6872 104.099 49.5698 104.042 49.416L101.363 41.7528C101.306 41.5828 101.319 41.4411 101.399 41.3278C101.488 41.2063 101.626 41.1456 101.812 41.1456C101.949 41.1456 102.058 41.182 102.139 41.2549C102.22 41.3197 102.288 41.4249 102.345 41.5707L104.854 48.9424H104.43L106.988 41.6071C107.045 41.4533 107.113 41.3399 107.194 41.267C107.275 41.1861 107.384 41.1456 107.521 41.1456C107.651 41.1456 107.752 41.1861 107.824 41.267C107.905 41.3399 107.974 41.4533 108.031 41.6071L110.552 48.9424H110.176L112.71 41.5707C112.75 41.433 112.811 41.3278 112.892 41.2549C112.981 41.182 113.094 41.1456 113.231 41.1456C113.401 41.1456 113.526 41.2023 113.607 41.3156C113.688 41.429 113.696 41.5747 113.631 41.7528L110.94 49.416C110.883 49.5698 110.811 49.6872 110.722 49.7682C110.641 49.8411 110.524 49.8775 110.37 49.8775C110.225 49.8775 110.108 49.8411 110.019 49.7682C109.938 49.6872 109.865 49.5698 109.8 49.416L107.364 42.3843H107.631L105.17 49.416C105.113 49.5698 105.044 49.6872 104.964 49.7682C104.883 49.8411 104.766 49.8775 104.612 49.8775Z" fill="#838383"/>
<path d="M117.848 49.9018C117.468 49.9018 117.096 49.8694 116.733 49.8046C116.369 49.7399 116.03 49.6467 115.714 49.5253C115.407 49.4039 115.129 49.25 114.878 49.0638C114.781 48.9909 114.712 48.91 114.672 48.8209C114.64 48.7238 114.632 48.6307 114.648 48.5416C114.672 48.4444 114.712 48.3635 114.769 48.2987C114.834 48.2339 114.91 48.1975 114.999 48.1894C115.088 48.1813 115.185 48.2096 115.29 48.2744C115.654 48.5335 116.042 48.7238 116.454 48.8452C116.866 48.9586 117.331 49.0152 117.848 49.0152C118.575 49.0152 119.113 48.8816 119.46 48.6145C119.816 48.3392 119.994 47.9789 119.994 47.5336C119.994 47.1693 119.865 46.8859 119.606 46.6835C119.355 46.473 118.931 46.307 118.333 46.1856L117.072 45.9305C116.313 45.7686 115.743 45.5055 115.363 45.1411C114.991 44.7687 114.805 44.2748 114.805 43.6595C114.805 43.279 114.882 42.9349 115.036 42.6272C115.189 42.3115 115.403 42.0443 115.678 41.8257C115.953 41.599 116.28 41.4249 116.66 41.3035C117.04 41.182 117.46 41.1213 117.921 41.1213C118.43 41.1213 118.903 41.1942 119.339 41.3399C119.784 41.4775 120.184 41.688 120.539 41.9714C120.628 42.0443 120.689 42.1293 120.721 42.2265C120.754 42.3155 120.758 42.4046 120.733 42.4936C120.709 42.5746 120.665 42.6434 120.6 42.7001C120.543 42.7568 120.467 42.7891 120.37 42.7972C120.281 42.8053 120.18 42.773 120.067 42.7001C119.743 42.4572 119.408 42.2831 119.06 42.1779C118.713 42.0645 118.329 42.0079 117.909 42.0079C117.48 42.0079 117.109 42.0726 116.793 42.2022C116.486 42.3317 116.244 42.522 116.066 42.773C115.896 43.0159 115.811 43.2992 115.811 43.6231C115.811 44.0117 115.929 44.3194 116.163 44.5461C116.405 44.7728 116.797 44.9387 117.339 45.044L118.6 45.3112C119.416 45.4812 120.018 45.7403 120.406 46.0884C120.802 46.4285 121 46.894 121 47.485C121 47.8413 120.927 48.1692 120.782 48.4687C120.636 48.7683 120.426 49.0274 120.151 49.246C119.877 49.4565 119.545 49.6184 119.157 49.7318C118.769 49.8451 118.333 49.9018 117.848 49.9018Z" fill="#838383"/>
<path d="M41.5938 4.32823C38.7034 3.13997 35.5383 2.48479 32.2205 2.48479C18.5759 2.48479 7.51486 13.5657 7.51486 27.2348C7.51486 40.9038 18.5759 51.9848 32.2205 51.9848C34.768 51.9848 37.2254 51.5985 39.5376 50.8813C35.7808 52.8724 31.4977 54 26.9516 54C12.0666 54 0 41.9117 0 27C0 12.0883 12.0666 0 26.9516 0C32.3501 0 37.3779 1.59008 41.5938 4.32823Z" fill="#FFDC24"/>
</svg>
